<?xml version="1.0" ?><svg enable-background="new 0 0 52 52" id="Layer_1" version="1.1" viewBox="0 0 52 52" xml:space="preserve" xmlns="http://www.w3.org/2000/svg" xmlns:xlink="http://www.w3.org/1999/xlink"><g><rect height="2" width="7" x="42" y="12.5"/><rect height="2" width="7" x="42" y="17.5"/><rect height="2" width="7" x="42" y="22.5"/><rect height="2" width="7" x="42" y="27.5"/><rect height="2" width="7" x="42" y="32.5"/><rect height="2" width="7" x="42" y="37.5"/><path d="M39.5,3h-2v6.9996338h-3V3h-2v6.9996338h-3V3h-2v6.9996338h-3V3h-2v6.9996338h-3V3h-2v6.9996338h-3V3h-2v6.9996338   H9.9986572V12.5H3v2h6.9986572v3H3v2h6.9986572v3H3v2h6.9986572v3H3v2h6.9986572v3H3v2h6.9986572v3H3v2h6.9986572v2.4996338h32v-32   H39.5V3z M13.2929688,14.7070313l1.4140625-1.4140625l1.4306641,1.4301758l-1.4140625,1.4140625L13.2929688,14.7070313z    M32.9986572,36.4996338h-14c-1.6499634,0-3-1.3499756-3-3v-14c0-1.6499634,1.3500366-3,3-3h14c1.6600342,0,3,1.3500366,3,3v14   C35.9986572,35.1496582,34.6586914,36.4996338,32.9986572,36.4996338z M37.2929688,38.7070313l-1.4296875-1.4296875   l1.4140625-1.4140625l1.4296875,1.4296875L37.2929688,38.7070313z"/><rect height="7" width="2" x="37.5" y="42"/><rect height="7" width="2" x="32.5" y="42"/><rect height="7" width="2" x="27.5" y="42"/><rect height="7" width="2" x="22.5" y="42"/><rect height="7" width="2" x="17.5" y="42"/><rect height="7" width="2" x="12.5" y="42"/></g></svg>