<svg width="280" height="300" viewBox="0 0 280 300" fill="none" xmlns="http://www.w3.org/2000/svg">
<path d="M195 300H85C83.6739 300 82.4022 299.473 81.4645 298.536C80.5268 297.598 80 296.326 80 295V95C80 93.6739 80.5268 92.4021 81.4645 91.4645C82.4022 90.5268 83.6739 90 85 90H195C196.326 90 197.598 90.5268 198.536 91.4645C199.473 92.4021 200 93.6739 200 95V295C200 296.326 199.473 297.598 198.536 298.536C197.598 299.473 196.326 300 195 300ZM90 290H190V100H90V290Z" fill="#414042"/>
<path d="M175 100H105C104.208 99.9994 103.428 99.8107 102.723 99.4496C102.019 99.0884 101.41 98.565 100.947 97.9225C100.484 97.28 100.181 96.5368 100.061 95.754C99.9417 94.9712 100.01 94.1713 100.26 93.42L110.26 63.42C110.592 62.4248 111.228 61.559 112.078 60.9453C112.929 60.3315 113.951 60.0008 115 60H165C166.049 60.0008 167.071 60.3315 167.922 60.9453C168.773 61.559 169.409 62.4248 169.74 63.42L179.74 93.42C179.99 94.1713 180.058 94.9712 179.939 95.754C179.82 96.5368 179.516 97.28 179.053 97.9225C178.59 98.565 177.982 99.0884 177.277 99.4496C176.572 99.8107 175.792 99.9994 175 100ZM111.94 90H168.06L161.4 70H118.6L111.94 90Z" fill="#414042"/>
<path d="M155 70H125C123.674 70 122.402 69.4732 121.464 68.5355C120.527 67.5979 120 66.3261 120 65V35C120 33.6739 120.527 32.4021 121.464 31.4645C122.402 30.5268 123.674 30 125 30H155C156.326 30 157.598 30.5268 158.536 31.4645C159.473 32.4021 160 33.6739 160 35V65C160 66.3261 159.473 67.5979 158.536 68.5355C157.598 69.4732 156.326 70 155 70V70ZM130 60H150V40H130V60Z" fill="#414042"/>
<path d="M140 40C138.674 40 137.402 39.4732 136.464 38.5355C135.527 37.5979 135 36.3261 135 35V5C135 3.67392 135.527 2.40214 136.464 1.46446C137.402 0.52678 138.674 0 140 0C141.326 0 142.598 0.52678 143.536 1.46446C144.473 2.40214 145 3.67392 145 5V35C145 36.3261 144.473 37.5979 143.536 38.5355C142.598 39.4732 141.326 40 140 40V40Z" fill="#414042"/>
<path d="M85 300H5C3.67392 300 2.40216 299.473 1.46448 298.536C0.526796 297.598 0 296.326 0 295V165C0 163.674 0.526796 162.402 1.46448 161.464C2.40216 160.527 3.67392 160 5 160H85C86.3261 160 87.598 160.527 88.5356 161.464C89.4733 162.402 90 163.674 90 165V295C90 296.326 89.4733 297.598 88.5356 298.536C87.598 299.473 86.3261 300 85 300ZM10 290H80V170H10V290Z" fill="#414042"/>
<path d="M275 300H195C193.674 300 192.402 299.473 191.464 298.536C190.527 297.598 190 296.326 190 295V165C190 163.674 190.527 162.402 191.464 161.464C192.402 160.527 193.674 160 195 160H275C276.326 160 277.598 160.527 278.536 161.464C279.473 162.402 280 163.674 280 165V295C280 296.326 279.473 297.598 278.536 298.536C277.598 299.473 276.326 300 275 300ZM200 290H270V170H200V290Z" fill="#414042"/>
<path d="M25 200C23.6739 200 22.4022 199.473 21.4645 198.536C20.5268 197.598 20 196.326 20 195V185C20 183.674 20.5268 182.402 21.4645 181.464C22.4022 180.527 23.6739 180 25 180C26.3261 180 27.5978 180.527 28.5355 181.464C29.4732 182.402 30 183.674 30 185V195C30 196.326 29.4732 197.598 28.5355 198.536C27.5978 199.473 26.3261 200 25 200Z" fill="#414042"/>
<path d="M45 200C43.6739 200 42.4022 199.473 41.4645 198.536C40.5268 197.598 40 196.326 40 195V185C40 183.674 40.5268 182.402 41.4645 181.464C42.4022 180.527 43.6739 180 45 180C46.3261 180 47.5978 180.527 48.5355 181.464C49.4732 182.402 50 183.674 50 185V195C50 196.326 49.4732 197.598 48.5355 198.536C47.5978 199.473 46.3261 200 45 200Z" fill="#414042"/>
<path d="M65 200C63.6739 200 62.4022 199.473 61.4645 198.536C60.5268 197.598 60 196.326 60 195V185C60 183.674 60.5268 182.402 61.4645 181.464C62.4022 180.527 63.6739 180 65 180C66.3261 180 67.5978 180.527 68.5355 181.464C69.4732 182.402 70 183.674 70 185V195C70 196.326 69.4732 197.598 68.5355 198.536C67.5978 199.473 66.3261 200 65 200Z" fill="#414042"/>
<path d="M215 200C213.674 200 212.402 199.473 211.464 198.536C210.527 197.598 210 196.326 210 195V185C210 183.674 210.527 182.402 211.464 181.464C212.402 180.527 213.674 180 215 180C216.326 180 217.598 180.527 218.536 181.464C219.473 182.402 220 183.674 220 185V195C220 196.326 219.473 197.598 218.536 198.536C217.598 199.473 216.326 200 215 200Z" fill="#414042"/>
<path d="M235 200C233.674 200 232.402 199.473 231.464 198.536C230.527 197.598 230 196.326 230 195V185C230 183.674 230.527 182.402 231.464 181.464C232.402 180.527 233.674 180 235 180C236.326 180 237.598 180.527 238.536 181.464C239.473 182.402 240 183.674 240 185V195C240 196.326 239.473 197.598 238.536 198.536C237.598 199.473 236.326 200 235 200Z" fill="#414042"/>
<path d="M255 200C253.674 200 252.402 199.473 251.464 198.536C250.527 197.598 250 196.326 250 195V185C250 183.674 250.527 182.402 251.464 181.464C252.402 180.527 253.674 180 255 180C256.326 180 257.598 180.527 258.536 181.464C259.473 182.402 260 183.674 260 185V195C260 196.326 259.473 197.598 258.536 198.536C257.598 199.473 256.326 200 255 200Z" fill="#414042"/>
<path d="M100 130C98.6739 130 97.402 129.473 96.4644 128.536C95.5267 127.598 95 126.326 95 125V115C95 113.674 95.5267 112.402 96.4644 111.464C97.402 110.527 98.6739 110 100 110C101.326 110 102.598 110.527 103.536 111.464C104.473 112.402 105 113.674 105 115V125C105 126.326 104.473 127.598 103.536 128.536C102.598 129.473 101.326 130 100 130Z" fill="#414042"/>
<path d="M120 130C118.674 130 117.402 129.473 116.464 128.536C115.527 127.598 115 126.326 115 125V115C115 113.674 115.527 112.402 116.464 111.464C117.402 110.527 118.674 110 120 110C121.326 110 122.598 110.527 123.536 111.464C124.473 112.402 125 113.674 125 115V125C125 126.326 124.473 127.598 123.536 128.536C122.598 129.473 121.326 130 120 130Z" fill="#414042"/>
<path d="M180 130C178.674 130 177.402 129.473 176.464 128.536C175.527 127.598 175 126.326 175 125V115C175 113.674 175.527 112.402 176.464 111.464C177.402 110.527 178.674 110 180 110C181.326 110 182.598 110.527 183.536 111.464C184.473 112.402 185 113.674 185 115V125C185 126.326 184.473 127.598 183.536 128.536C182.598 129.473 181.326 130 180 130Z" fill="#414042"/>
<path d="M160 130C158.674 130 157.402 129.473 156.464 128.536C155.527 127.598 155 126.326 155 125V115C155 113.674 155.527 112.402 156.464 111.464C157.402 110.527 158.674 110 160 110C161.326 110 162.598 110.527 163.536 111.464C164.473 112.402 165 113.674 165 115V125C165 126.326 164.473 127.598 163.536 128.536C162.598 129.473 161.326 130 160 130Z" fill="#414042"/>
<path d="M140 130C138.674 130 137.402 129.473 136.464 128.536C135.527 127.598 135 126.326 135 125V115C135 113.674 135.527 112.402 136.464 111.464C137.402 110.527 138.674 110 140 110C141.326 110 142.598 110.527 143.536 111.464C144.473 112.402 145 113.674 145 115V125C145 126.326 144.473 127.598 143.536 128.536C142.598 129.473 141.326 130 140 130Z" fill="#414042"/>
<path d="M25 230C23.6739 230 22.4022 229.473 21.4645 228.536C20.5268 227.598 20 226.326 20 225V215C20 213.674 20.5268 212.402 21.4645 211.464C22.4022 210.527 23.6739 210 25 210C26.3261 210 27.5978 210.527 28.5355 211.464C29.4732 212.402 30 213.674 30 215V225C30 226.326 29.4732 227.598 28.5355 228.536C27.5978 229.473 26.3261 230 25 230Z" fill="#414042"/>
<path d="M45 230C43.6739 230 42.4022 229.473 41.4645 228.536C40.5268 227.598 40 226.326 40 225V215C40 213.674 40.5268 212.402 41.4645 211.464C42.4022 210.527 43.6739 210 45 210C46.3261 210 47.5978 210.527 48.5355 211.464C49.4732 212.402 50 213.674 50 215V225C50 226.326 49.4732 227.598 48.5355 228.536C47.5978 229.473 46.3261 230 45 230Z" fill="#414042"/>
<path d="M65 230C63.6739 230 62.4022 229.473 61.4645 228.536C60.5268 227.598 60 226.326 60 225V215C60 213.674 60.5268 212.402 61.4645 211.464C62.4022 210.527 63.6739 210 65 210C66.3261 210 67.5978 210.527 68.5355 211.464C69.4732 212.402 70 213.674 70 215V225C70 226.326 69.4732 227.598 68.5355 228.536C67.5978 229.473 66.3261 230 65 230Z" fill="#414042"/>
<path d="M215 230C213.674 230 212.402 229.473 211.464 228.536C210.527 227.598 210 226.326 210 225V215C210 213.674 210.527 212.402 211.464 211.464C212.402 210.527 213.674 210 215 210C216.326 210 217.598 210.527 218.536 211.464C219.473 212.402 220 213.674 220 215V225C220 226.326 219.473 227.598 218.536 228.536C217.598 229.473 216.326 230 215 230Z" fill="#414042"/>
<path d="M235 230C233.674 230 232.402 229.473 231.464 228.536C230.527 227.598 230 226.326 230 225V215C230 213.674 230.527 212.402 231.464 211.464C232.402 210.527 233.674 210 235 210C236.326 210 237.598 210.527 238.536 211.464C239.473 212.402 240 213.674 240 215V225C240 226.326 239.473 227.598 238.536 228.536C237.598 229.473 236.326 230 235 230Z" fill="#414042"/>
<path d="M255 230C253.674 230 252.402 229.473 251.464 228.536C250.527 227.598 250 226.326 250 225V215C250 213.674 250.527 212.402 251.464 211.464C252.402 210.527 253.674 210 255 210C256.326 210 257.598 210.527 258.536 211.464C259.473 212.402 260 213.674 260 215V225C260 226.326 259.473 227.598 258.536 228.536C257.598 229.473 256.326 230 255 230Z" fill="#414042"/>
<path d="M120 160C118.674 160 117.402 159.473 116.464 158.536C115.527 157.598 115 156.326 115 155V145C115 143.674 115.527 142.402 116.464 141.464C117.402 140.527 118.674 140 120 140C121.326 140 122.598 140.527 123.536 141.464C124.473 142.402 125 143.674 125 145V155C125 156.326 124.473 157.598 123.536 158.536C122.598 159.473 121.326 160 120 160Z" fill="#414042"/>
<path d="M180 160C178.674 160 177.402 159.473 176.464 158.536C175.527 157.598 175 156.326 175 155V145C175 143.674 175.527 142.402 176.464 141.464C177.402 140.527 178.674 140 180 140C181.326 140 182.598 140.527 183.536 141.464C184.473 142.402 185 143.674 185 145V155C185 156.326 184.473 157.598 183.536 158.536C182.598 159.473 181.326 160 180 160Z" fill="#414042"/>
<path d="M160 160C158.674 160 157.402 159.473 156.464 158.536C155.527 157.598 155 156.326 155 155V145C155 143.674 155.527 142.402 156.464 141.464C157.402 140.527 158.674 140 160 140C161.326 140 162.598 140.527 163.536 141.464C164.473 142.402 165 143.674 165 145V155C165 156.326 164.473 157.598 163.536 158.536C162.598 159.473 161.326 160 160 160Z" fill="#414042"/>
<path d="M140 160C138.674 160 137.402 159.473 136.464 158.536C135.527 157.598 135 156.326 135 155V145C135 143.674 135.527 142.402 136.464 141.464C137.402 140.527 138.674 140 140 140C141.326 140 142.598 140.527 143.536 141.464C144.473 142.402 145 143.674 145 145V155C145 156.326 144.473 157.598 143.536 158.536C142.598 159.473 141.326 160 140 160Z" fill="#414042"/>
<path d="M100 160C98.6739 160 97.402 159.473 96.4644 158.536C95.5267 157.598 95 156.326 95 155V145C95 143.674 95.5267 142.402 96.4644 141.464C97.402 140.527 98.6739 140 100 140C101.326 140 102.598 140.527 103.536 141.464C104.473 142.402 105 143.674 105 145V155C105 156.326 104.473 157.598 103.536 158.536C102.598 159.473 101.326 160 100 160Z" fill="#414042"/>
<path d="M25 260C23.6739 260 22.4022 259.473 21.4645 258.536C20.5268 257.598 20 256.326 20 255V245C20 243.674 20.5268 242.402 21.4645 241.464C22.4022 240.527 23.6739 240 25 240C26.3261 240 27.5978 240.527 28.5355 241.464C29.4732 242.402 30 243.674 30 245V255C30 256.326 29.4732 257.598 28.5355 258.536C27.5978 259.473 26.3261 260 25 260Z" fill="#414042"/>
<path d="M45 260C43.6739 260 42.4022 259.473 41.4645 258.536C40.5268 257.598 40 256.326 40 255V245C40 243.674 40.5268 242.402 41.4645 241.464C42.4022 240.527 43.6739 240 45 240C46.3261 240 47.5978 240.527 48.5355 241.464C49.4732 242.402 50 243.674 50 245V255C50 256.326 49.4732 257.598 48.5355 258.536C47.5978 259.473 46.3261 260 45 260Z" fill="#414042"/>
<path d="M65 260C63.6739 260 62.4022 259.473 61.4645 258.536C60.5268 257.598 60 256.326 60 255V245C60 243.674 60.5268 242.402 61.4645 241.464C62.4022 240.527 63.6739 240 65 240C66.3261 240 67.5978 240.527 68.5355 241.464C69.4732 242.402 70 243.674 70 245V255C70 256.326 69.4732 257.598 68.5355 258.536C67.5978 259.473 66.3261 260 65 260Z" fill="#414042"/>
<path d="M215 260C213.674 260 212.402 259.473 211.464 258.536C210.527 257.598 210 256.326 210 255V245C210 243.674 210.527 242.402 211.464 241.464C212.402 240.527 213.674 240 215 240C216.326 240 217.598 240.527 218.536 241.464C219.473 242.402 220 243.674 220 245V255C220 256.326 219.473 257.598 218.536 258.536C217.598 259.473 216.326 260 215 260Z" fill="#414042"/>
<path d="M235 260C233.674 260 232.402 259.473 231.464 258.536C230.527 257.598 230 256.326 230 255V245C230 243.674 230.527 242.402 231.464 241.464C232.402 240.527 233.674 240 235 240C236.326 240 237.598 240.527 238.536 241.464C239.473 242.402 240 243.674 240 245V255C240 256.326 239.473 257.598 238.536 258.536C237.598 259.473 236.326 260 235 260Z" fill="#414042"/>
<path d="M255 260C253.674 260 252.402 259.473 251.464 258.536C250.527 257.598 250 256.326 250 255V245C250 243.674 250.527 242.402 251.464 241.464C252.402 240.527 253.674 240 255 240C256.326 240 257.598 240.527 258.536 241.464C259.473 242.402 260 243.674 260 245V255C260 256.326 259.473 257.598 258.536 258.536C257.598 259.473 256.326 260 255 260Z" fill="#414042"/>
<path d="M120 190C118.674 190 117.402 189.473 116.464 188.536C115.527 187.598 115 186.326 115 185V175C115 173.674 115.527 172.402 116.464 171.464C117.402 170.527 118.674 170 120 170C121.326 170 122.598 170.527 123.536 171.464C124.473 172.402 125 173.674 125 175V185C125 186.326 124.473 187.598 123.536 188.536C122.598 189.473 121.326 190 120 190Z" fill="#414042"/>
<path d="M180 190C178.674 190 177.402 189.473 176.464 188.536C175.527 187.598 175 186.326 175 185V175C175 173.674 175.527 172.402 176.464 171.464C177.402 170.527 178.674 170 180 170C181.326 170 182.598 170.527 183.536 171.464C184.473 172.402 185 173.674 185 175V185C185 186.326 184.473 187.598 183.536 188.536C182.598 189.473 181.326 190 180 190Z" fill="#414042"/>
<path d="M160 190C158.674 190 157.402 189.473 156.464 188.536C155.527 187.598 155 186.326 155 185V175C155 173.674 155.527 172.402 156.464 171.464C157.402 170.527 158.674 170 160 170C161.326 170 162.598 170.527 163.536 171.464C164.473 172.402 165 173.674 165 175V185C165 186.326 164.473 187.598 163.536 188.536C162.598 189.473 161.326 190 160 190Z" fill="#414042"/>
<path d="M140 190C138.674 190 137.402 189.473 136.464 188.536C135.527 187.598 135 186.326 135 185V175C135 173.674 135.527 172.402 136.464 171.464C137.402 170.527 138.674 170 140 170C141.326 170 142.598 170.527 143.536 171.464C144.473 172.402 145 173.674 145 175V185C145 186.326 144.473 187.598 143.536 188.536C142.598 189.473 141.326 190 140 190Z" fill="#414042"/>
<path d="M100 190C98.6739 190 97.402 189.473 96.4644 188.536C95.5267 187.598 95 186.326 95 185V175C95 173.674 95.5267 172.402 96.4644 171.464C97.402 170.527 98.6739 170 100 170C101.326 170 102.598 170.527 103.536 171.464C104.473 172.402 105 173.674 105 175V185C105 186.326 104.473 187.598 103.536 188.536C102.598 189.473 101.326 190 100 190Z" fill="#414042"/>
<path d="M25 300C23.6739 300 22.4022 299.473 21.4645 298.536C20.5268 297.598 20 296.326 20 295V275C20 273.674 20.5268 272.402 21.4645 271.464C22.4022 270.527 23.6739 270 25 270C26.3261 270 27.5978 270.527 28.5355 271.464C29.4732 272.402 30 273.674 30 275V295C30 296.326 29.4732 297.598 28.5355 298.536C27.5978 299.473 26.3261 300 25 300Z" fill="#414042"/>
<path d="M45 300C43.6739 300 42.4022 299.473 41.4645 298.536C40.5268 297.598 40 296.326 40 295V275C40 273.674 40.5268 272.402 41.4645 271.464C42.4022 270.527 43.6739 270 45 270C46.3261 270 47.5978 270.527 48.5355 271.464C49.4732 272.402 50 273.674 50 275V295C50 296.326 49.4732 297.598 48.5355 298.536C47.5978 299.473 46.3261 300 45 300Z" fill="#414042"/>
<path d="M65 300C63.6739 300 62.4022 299.473 61.4645 298.536C60.5268 297.598 60 296.326 60 295V275C60 273.674 60.5268 272.402 61.4645 271.464C62.4022 270.527 63.6739 270 65 270C66.3261 270 67.5978 270.527 68.5355 271.464C69.4732 272.402 70 273.674 70 275V295C70 296.326 69.4732 297.598 68.5355 298.536C67.5978 299.473 66.3261 300 65 300Z" fill="#414042"/>
<path d="M215 300C213.674 300 212.402 299.473 211.464 298.536C210.527 297.598 210 296.326 210 295V275C210 273.674 210.527 272.402 211.464 271.464C212.402 270.527 213.674 270 215 270C216.326 270 217.598 270.527 218.536 271.464C219.473 272.402 220 273.674 220 275V295C220 296.326 219.473 297.598 218.536 298.536C217.598 299.473 216.326 300 215 300Z" fill="#414042"/>
<path d="M235 300C233.674 300 232.402 299.473 231.464 298.536C230.527 297.598 230 296.326 230 295V275C230 273.674 230.527 272.402 231.464 271.464C232.402 270.527 233.674 270 235 270C236.326 270 237.598 270.527 238.536 271.464C239.473 272.402 240 273.674 240 275V295C240 296.326 239.473 297.598 238.536 298.536C237.598 299.473 236.326 300 235 300Z" fill="#414042"/>
<path d="M255 300C253.674 300 252.402 299.473 251.464 298.536C250.527 297.598 250 296.326 250 295V275C250 273.674 250.527 272.402 251.464 271.464C252.402 270.527 253.674 270 255 270C256.326 270 257.598 270.527 258.536 271.464C259.473 272.402 260 273.674 260 275V295C260 296.326 259.473 297.598 258.536 298.536C257.598 299.473 256.326 300 255 300Z" fill="#414042"/>
<path d="M120 220C118.674 220 117.402 219.473 116.464 218.536C115.527 217.598 115 216.326 115 215V205C115 203.674 115.527 202.402 116.464 201.464C117.402 200.527 118.674 200 120 200C121.326 200 122.598 200.527 123.536 201.464C124.473 202.402 125 203.674 125 205V215C125 216.326 124.473 217.598 123.536 218.536C122.598 219.473 121.326 220 120 220Z" fill="#414042"/>
<path d="M180 220C178.674 220 177.402 219.473 176.464 218.536C175.527 217.598 175 216.326 175 215V205C175 203.674 175.527 202.402 176.464 201.464C177.402 200.527 178.674 200 180 200C181.326 200 182.598 200.527 183.536 201.464C184.473 202.402 185 203.674 185 205V215C185 216.326 184.473 217.598 183.536 218.536C182.598 219.473 181.326 220 180 220Z" fill="#414042"/>
<path d="M160 220C158.674 220 157.402 219.473 156.464 218.536C155.527 217.598 155 216.326 155 215V205C155 203.674 155.527 202.402 156.464 201.464C157.402 200.527 158.674 200 160 200C161.326 200 162.598 200.527 163.536 201.464C164.473 202.402 165 203.674 165 205V215C165 216.326 164.473 217.598 163.536 218.536C162.598 219.473 161.326 220 160 220Z" fill="#414042"/>
<path d="M140 220C138.674 220 137.402 219.473 136.464 218.536C135.527 217.598 135 216.326 135 215V205C135 203.674 135.527 202.402 136.464 201.464C137.402 200.527 138.674 200 140 200C141.326 200 142.598 200.527 143.536 201.464C144.473 202.402 145 203.674 145 205V215C145 216.326 144.473 217.598 143.536 218.536C142.598 219.473 141.326 220 140 220Z" fill="#414042"/>
<path d="M100 220C98.6739 220 97.402 219.473 96.4644 218.536C95.5267 217.598 95 216.326 95 215V205C95 203.674 95.5267 202.402 96.4644 201.464C97.402 200.527 98.6739 200 100 200C101.326 200 102.598 200.527 103.536 201.464C104.473 202.402 105 203.674 105 205V215C105 216.326 104.473 217.598 103.536 218.536C102.598 219.473 101.326 220 100 220Z" fill="#414042"/>
<path d="M120 250C118.674 250 117.402 249.473 116.464 248.536C115.527 247.598 115 246.326 115 245V235C115 233.674 115.527 232.402 116.464 231.464C117.402 230.527 118.674 230 120 230C121.326 230 122.598 230.527 123.536 231.464C124.473 232.402 125 233.674 125 235V245C125 246.326 124.473 247.598 123.536 248.536C122.598 249.473 121.326 250 120 250Z" fill="#414042"/>
<path d="M180 250C178.674 250 177.402 249.473 176.464 248.536C175.527 247.598 175 246.326 175 245V235C175 233.674 175.527 232.402 176.464 231.464C177.402 230.527 178.674 230 180 230C181.326 230 182.598 230.527 183.536 231.464C184.473 232.402 185 233.674 185 235V245C185 246.326 184.473 247.598 183.536 248.536C182.598 249.473 181.326 250 180 250Z" fill="#414042"/>
<path d="M160 250C158.674 250 157.402 249.473 156.464 248.536C155.527 247.598 155 246.326 155 245V235C155 233.674 155.527 232.402 156.464 231.464C157.402 230.527 158.674 230 160 230C161.326 230 162.598 230.527 163.536 231.464C164.473 232.402 165 233.674 165 235V245C165 246.326 164.473 247.598 163.536 248.536C162.598 249.473 161.326 250 160 250Z" fill="#414042"/>
<path d="M140 250C138.674 250 137.402 249.473 136.464 248.536C135.527 247.598 135 246.326 135 245V235C135 233.674 135.527 232.402 136.464 231.464C137.402 230.527 138.674 230 140 230C141.326 230 142.598 230.527 143.536 231.464C144.473 232.402 145 233.674 145 235V245C145 246.326 144.473 247.598 143.536 248.536C142.598 249.473 141.326 250 140 250Z" fill="#414042"/>
<path d="M100 250C98.6739 250 97.402 249.473 96.4644 248.536C95.5267 247.598 95 246.326 95 245V235C95 233.674 95.5267 232.402 96.4644 231.464C97.402 230.527 98.6739 230 100 230C101.326 230 102.598 230.527 103.536 231.464C104.473 232.402 105 233.674 105 235V245C105 246.326 104.473 247.598 103.536 248.536C102.598 249.473 101.326 250 100 250Z" fill="#414042"/>
<path d="M120 300C118.674 300 117.402 299.473 116.464 298.536C115.527 297.598 115 296.326 115 295V265C115 263.674 115.527 262.402 116.464 261.464C117.402 260.527 118.674 260 120 260C121.326 260 122.598 260.527 123.536 261.464C124.473 262.402 125 263.674 125 265V295C125 296.326 124.473 297.598 123.536 298.536C122.598 299.473 121.326 300 120 300Z" fill="#414042"/>
<path d="M180 300C178.674 300 177.402 299.473 176.464 298.536C175.527 297.598 175 296.326 175 295V265C175 263.674 175.527 262.402 176.464 261.464C177.402 260.527 178.674 260 180 260C181.326 260 182.598 260.527 183.536 261.464C184.473 262.402 185 263.674 185 265V295C185 296.326 184.473 297.598 183.536 298.536C182.598 299.473 181.326 300 180 300Z" fill="#414042"/>
<path d="M160 300C158.674 300 157.402 299.473 156.464 298.536C155.527 297.598 155 296.326 155 295V265C155 263.674 155.527 262.402 156.464 261.464C157.402 260.527 158.674 260 160 260C161.326 260 162.598 260.527 163.536 261.464C164.473 262.402 165 263.674 165 265V295C165 296.326 164.473 297.598 163.536 298.536C162.598 299.473 161.326 300 160 300Z" fill="#414042"/>
<path d="M140 300C138.674 300 137.402 299.473 136.464 298.536C135.527 297.598 135 296.326 135 295V265C135 263.674 135.527 262.402 136.464 261.464C137.402 260.527 138.674 260 140 260C141.326 260 142.598 260.527 143.536 261.464C144.473 262.402 145 263.674 145 265V295C145 296.326 144.473 297.598 143.536 298.536C142.598 299.473 141.326 300 140 300Z" fill="#414042"/>
<path d="M100 300C98.6739 300 97.402 299.473 96.4644 298.536C95.5267 297.598 95 296.326 95 295V265C95 263.674 95.5267 262.402 96.4644 261.464C97.402 260.527 98.6739 260 100 260C101.326 260 102.598 260.527 103.536 261.464C104.473 262.402 105 263.674 105 265V295C105 296.326 104.473 297.598 103.536 298.536C102.598 299.473 101.326 300 100 300Z" fill="#414042"/>
<path d="M130 100C128.674 100 127.402 99.4732 126.464 98.5355C125.527 97.5979 125 96.3261 125 95V85C125 83.6739 125.527 82.4021 126.464 81.4645C127.402 80.5268 128.674 80 130 80C131.326 80 132.598 80.5268 133.536 81.4645C134.473 82.4021 135 83.6739 135 85V95C135 96.3261 134.473 97.5979 133.536 98.5355C132.598 99.4732 131.326 100 130 100V100Z" fill="#414042"/>
<path d="M150 100C148.674 100 147.402 99.4732 146.464 98.5355C145.527 97.5979 145 96.3261 145 95V85C145 83.6739 145.527 82.4021 146.464 81.4645C147.402 80.5268 148.674 80 150 80C151.326 80 152.598 80.5268 153.536 81.4645C154.473 82.4021 155 83.6739 155 85V95C155 96.3261 154.473 97.5979 153.536 98.5355C152.598 99.4732 151.326 100 150 100V100Z" fill="#414042"/>
<path d="M140 70C138.674 70 137.402 69.4732 136.464 68.5355C135.527 67.5979 135 66.3261 135 65V50C135 48.6739 135.527 47.4021 136.464 46.4645C137.402 45.5268 138.674 45 140 45C141.326 45 142.598 45.5268 143.536 46.4645C144.473 47.4021 145 48.6739 145 50V65C145 66.3261 144.473 67.5979 143.536 68.5355C142.598 69.4732 141.326 70 140 70V70Z" fill="#414042"/>
</svg>
