<svg width="19" height="19" viewBox="0 0 19 19" fill="none" xmlns="http://www.w3.org/2000/svg">
<path d="M6.62963 7.35714C6.62963 8.14143 6.80178 8.88286 7.09526 9.55464L3 13.7857C3 13.7857 3 14.5057 3 15.3929C3 16.28 3.92919 17 5.07407 17H7.14815V14.8571H9.22222V12.7143C9.22222 12.7143 11.6375 12.7143 11.8148 12.7143C14.6791 12.7143 17 10.3164 17 7.35714C17 4.39786 14.6791 2 11.8148 2C8.95052 2 6.62963 4.39786 6.62963 7.35714ZM11.8148 9.5C10.6699 9.5 9.74074 8.54 9.74074 7.35714C9.74074 6.17321 10.6699 5.21214 11.8148 5.21214C12.9607 5.21214 13.8889 6.17214 13.8889 7.35714C13.8889 8.54 12.9607 9.5 11.8148 9.5Z" fill="black"/>
</svg>
