<svg width="15" height="15" viewBox="0 0 15 15" fill="none" xmlns="http://www.w3.org/2000/svg">
<path d="M4.49844 12.3994H6.29844V13.9988C6.29844 14.2181 6.41844 14.4188 6.59844 14.5181C6.69781 14.5781 6.79906 14.5988 6.89844 14.5988C6.99781 14.5988 7.11781 14.5781 7.21906 14.5181L10.8191 12.3188C10.9991 12.1988 11.0984 11.9981 11.0984 11.7994V1.40063C11.0984 1.40063 11.0984 1.40063 11.0984 1.38C11.0984 1.34063 11.0984 1.29938 11.0778 1.26C11.0778 1.26 11.0778 1.26 11.0778 1.23938V1.21875C11.0572 1.17938 11.0572 1.13813 11.0384 1.09875C11.0384 1.09875 11.0384 1.07813 11.0178 1.07813C10.9972 1.03875 10.9578 0.9975 10.9372 0.97875L10.9166 0.958125C10.8772 0.91875 10.8566 0.898125 10.8172 0.8775C10.7778 0.856875 10.7366 0.838125 10.6766 0.8175H10.6559C10.5753 0.796875 10.5359 0.796875 10.4966 0.796875H4.49844C4.15906 0.796875 3.89844 1.0575 3.89844 1.39688V11.7975C3.89844 12.1406 4.15906 12.3994 4.49844 12.3994ZM7.49844 3.93938L9.89844 2.47875V11.4788L7.49844 12.9394V3.93938Z" fill="black"/>
</svg>
