<svg width="15" height="15" viewBox="0 0 15 15" fill="none" xmlns="http://www.w3.org/2000/svg">
<g clip-path="url(#clip0_510_302)">
<path d="M7.49485 1.49994C7.43615 1.50072 7.37845 1.51527 7.32639 1.54242L0.201393 5.29242C0.140608 5.32412 0.0896774 5.37189 0.054136 5.43051C0.0185946 5.48914 -0.000197343 5.55638 -0.000197343 5.62494C-0.000197343 5.69349 0.0185946 5.76074 0.054136 5.81936C0.0896774 5.87799 0.140608 5.92575 0.201393 5.95746L7.32639 9.70746C7.38016 9.73568 7.43998 9.75043 7.50071 9.75043C7.56144 9.75043 7.62126 9.73568 7.67503 9.70746L14.8 5.95746C14.8608 5.92575 14.9117 5.87799 14.9473 5.81936C14.9828 5.76074 15.0016 5.69349 15.0016 5.62494C15.0016 5.55638 14.9828 5.48914 14.9473 5.43051C14.9117 5.37189 14.8608 5.32412 14.8 5.29242L7.67503 1.54242C7.61946 1.51343 7.55751 1.49882 7.49485 1.49994V1.49994ZM7.50071 2.29974L13.82 5.62494L7.50071 8.9516L1.18137 5.62494L7.50071 2.29974ZM0.36985 7.49701C0.285314 7.49686 0.203207 7.52527 0.136846 7.57764C0.0704846 7.63001 0.0237629 7.70326 0.00425907 7.78552C-0.0152448 7.86777 -0.00638669 7.9542 0.0293965 8.03079C0.0651797 8.10738 0.125789 8.16964 0.201393 8.20746L7.32639 11.9575C7.38016 11.9857 7.43998 12.0004 7.50071 12.0004C7.56144 12.0004 7.62126 11.9857 7.67503 11.9575L14.8 8.20746C14.8437 8.18457 14.8824 8.1533 14.914 8.11544C14.9456 8.07758 14.9694 8.03387 14.9841 7.9868C14.9988 7.93974 15.0041 7.89024 14.9996 7.84114C14.9952 7.79204 14.9811 7.74429 14.9582 7.70062C14.9353 7.65695 14.9041 7.61822 14.8662 7.58664C14.8283 7.55506 14.7846 7.53124 14.7376 7.51655C14.6905 7.50186 14.641 7.49658 14.5919 7.50102C14.5428 7.50546 14.4951 7.51953 14.4514 7.54242L7.50071 11.2016L0.550026 7.54242C0.494727 7.51241 0.432767 7.49679 0.36985 7.49701V7.49701ZM0.36985 9.74701C0.285314 9.74686 0.203207 9.77527 0.136846 9.82764C0.0704849 9.88001 0.0237632 9.95326 0.00425937 10.0355C-0.0152445 10.1178 -0.00638641 10.2042 0.0293967 10.2808C0.0651799 10.3574 0.125789 10.4196 0.201393 10.4575L7.32639 14.2075C7.38016 14.2357 7.43998 14.2504 7.50071 14.2504C7.56144 14.2504 7.62126 14.2357 7.67503 14.2075L14.8 10.4575C14.8437 10.4346 14.8824 10.4033 14.914 10.3654C14.9456 10.3276 14.9694 10.2839 14.9841 10.2368C14.9988 10.1897 15.0041 10.1402 14.9996 10.0911C14.9952 10.042 14.9811 9.99429 14.9582 9.95062C14.9353 9.90695 14.9041 9.86822 14.8662 9.83664C14.8283 9.80506 14.7846 9.78124 14.7376 9.76655C14.6905 9.75186 14.641 9.74658 14.5919 9.75102C14.5428 9.75546 14.4951 9.76953 14.4514 9.79242L7.50071 13.4516L0.550026 9.79242C0.494727 9.76241 0.432767 9.74679 0.36985 9.74701V9.74701Z" fill="black"/>
</g>
<defs>
<clipPath id="clip0_510_302">
<rect width="15" height="15" fill="white"/>
</clipPath>
</defs>
</svg>
